<mxfile host="app.diagrams.net" modified="2022-02-12T17:45:40.067Z" agent="5.0 (Macintosh; Intel Mac OS X 10_15_7) AppleWebKit/537.36 (KHTML, like Gecko) Chrome/97.0.4692.99 Safari/537.36" etag="Y3gD9IlhySqdMR7XNQeA" version="16.2.4" type="github">
  <diagram id="wWwvPGImW9WJB90HxJe0" name="Page-1">
    <mxGraphModel dx="1038" dy="693" grid="1" gridSize="10" guides="1" tooltips="1" connect="1" arrows="1" fold="1" page="1" pageScale="1" pageWidth="850" pageHeight="1100" math="0" shadow="0">
      <root>
        <mxCell id="0" />
        <mxCell id="1" parent="0" />
        <mxCell id="Cf0tJ8emwC0KvPf4NdqH-3" value="" style="edgeStyle=orthogonalEdgeStyle;rounded=0;orthogonalLoop=1;jettySize=auto;html=1;" edge="1" parent="1" source="Cf0tJ8emwC0KvPf4NdqH-1" target="Cf0tJ8emwC0KvPf4NdqH-2">
          <mxGeometry relative="1" as="geometry" />
        </mxCell>
        <mxCell id="Cf0tJ8emwC0KvPf4NdqH-1" value="Start&amp;nbsp;" style="ellipse;whiteSpace=wrap;html=1;" vertex="1" parent="1">
          <mxGeometry x="365" y="80" width="120" height="80" as="geometry" />
        </mxCell>
        <mxCell id="Cf0tJ8emwC0KvPf4NdqH-5" value="" style="edgeStyle=orthogonalEdgeStyle;rounded=0;orthogonalLoop=1;jettySize=auto;html=1;" edge="1" parent="1" source="Cf0tJ8emwC0KvPf4NdqH-2">
          <mxGeometry relative="1" as="geometry">
            <mxPoint x="425" y="290" as="targetPoint" />
          </mxGeometry>
        </mxCell>
        <mxCell id="Cf0tJ8emwC0KvPf4NdqH-2" value="Fetch all Mails to be sent &amp;amp; send Emails" style="whiteSpace=wrap;html=1;" vertex="1" parent="1">
          <mxGeometry x="365" y="200" width="120" height="60" as="geometry" />
        </mxCell>
        <mxCell id="Cf0tJ8emwC0KvPf4NdqH-9" value="" style="edgeStyle=orthogonalEdgeStyle;rounded=0;orthogonalLoop=1;jettySize=auto;html=1;" edge="1" parent="1" source="Cf0tJ8emwC0KvPf4NdqH-7" target="Cf0tJ8emwC0KvPf4NdqH-8">
          <mxGeometry relative="1" as="geometry" />
        </mxCell>
        <mxCell id="Cf0tJ8emwC0KvPf4NdqH-7" value="Schedule each mail to next week by default&amp;nbsp;" style="rounded=0;whiteSpace=wrap;html=1;" vertex="1" parent="1">
          <mxGeometry x="365" y="290" width="120" height="60" as="geometry" />
        </mxCell>
        <mxCell id="Cf0tJ8emwC0KvPf4NdqH-8" value="End&amp;nbsp;" style="ellipse;whiteSpace=wrap;html=1;rounded=0;" vertex="1" parent="1">
          <mxGeometry x="365" y="390" width="120" height="60" as="geometry" />
        </mxCell>
        <mxCell id="Cf0tJ8emwC0KvPf4NdqH-11" value="&lt;h1&gt;Notes&amp;nbsp;&lt;/h1&gt;&lt;div&gt;1. Incase user replies, next date is extended&amp;nbsp;&lt;/div&gt;&lt;p&gt;&lt;/p&gt;" style="text;html=1;strokeColor=none;fillColor=none;spacing=5;spacingTop=-20;whiteSpace=wrap;overflow=hidden;rounded=0;" vertex="1" parent="1">
          <mxGeometry x="130" y="460" width="590" height="340" as="geometry" />
        </mxCell>
      </root>
    </mxGraphModel>
  </diagram>
</mxfile>
